<mxfile host="6731f0f8-333a-4a35-8ff2-a4a7cbdec862" modified="2020-07-20T13:41:41.338Z" agent="5.0 (Windows NT 10.0; Win64; x64) AppleWebKit/537.36 (KHTML, like Gecko) Code/1.47.2 Chrome/78.0.3904.130 Electron/7.3.2 Safari/537.36" etag="0Bl-fWZozzN6GWzxgJQI" version="13.1.3" pages="2">
    <diagram id="6hGFLwfOUW9BJ-s0fimq" name="Service">
        <mxGraphModel dx="1042" dy="777" grid="1" gridSize="10" guides="1" tooltips="1" connect="1" arrows="1" fold="1" page="1" pageScale="1" pageWidth="1169" pageHeight="827" math="0" shadow="0">
            <root>
                <mxCell id="0"/>
                <mxCell id="1" parent="0"/>
                <mxCell id="XLPqwXqlDoLw2aWVE9Vi-5" value="" style="edgeStyle=orthogonalEdgeStyle;rounded=0;orthogonalLoop=1;jettySize=auto;html=1;fontColor=#FFFFFF;strokeColor=#FFB366;strokeWidth=3;" parent="1" source="2" target="XLPqwXqlDoLw2aWVE9Vi-3" edge="1">
                    <mxGeometry relative="1" as="geometry"/>
                </mxCell>
                <mxCell id="2" value="" style="outlineConnect=0;fontColor=#232F3E;gradientColor=none;fillColor=#FF8000;strokeColor=none;dashed=0;verticalLabelPosition=bottom;verticalAlign=top;align=center;html=1;fontSize=12;fontStyle=0;aspect=fixed;pointerEvents=1;shape=mxgraph.aws4.internet;" parent="1" vertex="1">
                    <mxGeometry x="551" y="40" width="78" height="48" as="geometry"/>
                </mxCell>
                <mxCell id="XLPqwXqlDoLw2aWVE9Vi-2" value="Redis" style="outlineConnect=0;fontColor=#232F3E;gradientColor=none;fillColor=#FF8000;strokeColor=none;dashed=0;verticalLabelPosition=bottom;verticalAlign=top;align=center;html=1;fontSize=12;fontStyle=0;aspect=fixed;pointerEvents=1;shape=mxgraph.aws4.generic_database;" parent="1" vertex="1">
                    <mxGeometry x="560.5" y="490" width="59" height="78" as="geometry"/>
                </mxCell>
                <mxCell id="XLPqwXqlDoLw2aWVE9Vi-7" value="" style="edgeStyle=orthogonalEdgeStyle;rounded=0;orthogonalLoop=1;jettySize=auto;html=1;fontColor=#FFFFFF;strokeColor=#6666FF;strokeWidth=3;" parent="1" source="XLPqwXqlDoLw2aWVE9Vi-3" target="XLPqwXqlDoLw2aWVE9Vi-2" edge="1">
                    <mxGeometry relative="1" as="geometry">
                        <mxPoint x="580" y="303.5" as="targetPoint"/>
                    </mxGeometry>
                </mxCell>
                <mxCell id="XLPqwXqlDoLw2aWVE9Vi-9" value="" style="edgeStyle=orthogonalEdgeStyle;rounded=0;orthogonalLoop=1;jettySize=auto;html=1;fontColor=#FFFFFF;strokeColor=#FF6666;strokeWidth=3;" parent="1" source="XLPqwXqlDoLw2aWVE9Vi-3" target="XLPqwXqlDoLw2aWVE9Vi-8" edge="1">
                    <mxGeometry relative="1" as="geometry"/>
                </mxCell>
                <mxCell id="XLPqwXqlDoLw2aWVE9Vi-11" value="" style="edgeStyle=orthogonalEdgeStyle;rounded=0;orthogonalLoop=1;jettySize=auto;html=1;fontColor=#FFFFFF;strokeColor=#FF6666;strokeWidth=3;" parent="1" source="XLPqwXqlDoLw2aWVE9Vi-3" target="XLPqwXqlDoLw2aWVE9Vi-10" edge="1">
                    <mxGeometry relative="1" as="geometry">
                        <Array as="points">
                            <mxPoint x="680" y="180"/>
                            <mxPoint x="680" y="300"/>
                        </Array>
                    </mxGeometry>
                </mxCell>
                <mxCell id="XLPqwXqlDoLw2aWVE9Vi-14" value="" style="edgeStyle=orthogonalEdgeStyle;rounded=0;orthogonalLoop=1;jettySize=auto;html=1;fontColor=#FFFFFF;strokeColor=#FF6666;strokeWidth=3;" parent="1" source="XLPqwXqlDoLw2aWVE9Vi-3" target="XLPqwXqlDoLw2aWVE9Vi-13" edge="1">
                    <mxGeometry relative="1" as="geometry">
                        <Array as="points">
                            <mxPoint x="680" y="180"/>
                            <mxPoint x="680" y="420"/>
                        </Array>
                    </mxGeometry>
                </mxCell>
                <mxCell id="XLPqwXqlDoLw2aWVE9Vi-17" value="" style="edgeStyle=orthogonalEdgeStyle;rounded=0;orthogonalLoop=1;jettySize=auto;html=1;fontColor=#FFFFFF;strokeColor=#FF6666;strokeWidth=3;" parent="1" source="XLPqwXqlDoLw2aWVE9Vi-3" target="XLPqwXqlDoLw2aWVE9Vi-16" edge="1">
                    <mxGeometry relative="1" as="geometry">
                        <Array as="points">
                            <mxPoint x="680" y="180"/>
                            <mxPoint x="680" y="540"/>
                        </Array>
                    </mxGeometry>
                </mxCell>
                <mxCell id="XLPqwXqlDoLw2aWVE9Vi-19" value="" style="edgeStyle=orthogonalEdgeStyle;rounded=0;orthogonalLoop=1;jettySize=auto;html=1;fontColor=#FFFFFF;strokeColor=#FF6666;strokeWidth=3;" parent="1" source="XLPqwXqlDoLw2aWVE9Vi-3" target="XLPqwXqlDoLw2aWVE9Vi-18" edge="1">
                    <mxGeometry relative="1" as="geometry">
                        <Array as="points">
                            <mxPoint x="680" y="180"/>
                            <mxPoint x="680" y="660"/>
                        </Array>
                    </mxGeometry>
                </mxCell>
                <mxCell id="XLPqwXqlDoLw2aWVE9Vi-32" value="" style="edgeStyle=orthogonalEdgeStyle;rounded=0;orthogonalLoop=1;jettySize=auto;html=1;strokeColor=#FFB366;strokeWidth=3;fontColor=#FFFFFF;startArrow=classic;startFill=1;endArrow=none;endFill=0;" parent="1" source="XLPqwXqlDoLw2aWVE9Vi-3" target="XLPqwXqlDoLw2aWVE9Vi-31" edge="1">
                    <mxGeometry relative="1" as="geometry"/>
                </mxCell>
                <mxCell id="XLPqwXqlDoLw2aWVE9Vi-3" value="Frontend" style="rounded=1;whiteSpace=wrap;html=1;fillColor=#FF8000;strokeColor=none;fontColor=#FFFFFF;" parent="1" vertex="1">
                    <mxGeometry x="520" y="150" width="140" height="60" as="geometry"/>
                </mxCell>
                <mxCell id="XLPqwXqlDoLw2aWVE9Vi-31" value="Load Generator" style="rounded=1;whiteSpace=wrap;html=1;fillColor=#FF8000;strokeColor=none;fontColor=#FFFFFF;" parent="1" vertex="1">
                    <mxGeometry x="300" y="150" width="140" height="60" as="geometry"/>
                </mxCell>
                <mxCell id="XLPqwXqlDoLw2aWVE9Vi-20" value="" style="edgeStyle=orthogonalEdgeStyle;rounded=0;orthogonalLoop=1;jettySize=auto;html=1;fontColor=#FFFFFF;strokeColor=#FF6666;strokeWidth=3;" parent="1" source="XLPqwXqlDoLw2aWVE9Vi-18" target="XLPqwXqlDoLw2aWVE9Vi-16" edge="1">
                    <mxGeometry relative="1" as="geometry"/>
                </mxCell>
                <mxCell id="XLPqwXqlDoLw2aWVE9Vi-25" value="" style="edgeStyle=orthogonalEdgeStyle;rounded=0;orthogonalLoop=1;jettySize=auto;html=1;strokeColor=#6666FF;strokeWidth=3;fontColor=#FFFFFF;" parent="1" source="XLPqwXqlDoLw2aWVE9Vi-18" target="XLPqwXqlDoLw2aWVE9Vi-4" edge="1">
                    <mxGeometry relative="1" as="geometry"/>
                </mxCell>
                <mxCell id="XLPqwXqlDoLw2aWVE9Vi-18" value="Orderservice" style="rounded=1;whiteSpace=wrap;html=1;fillColor=#FF8000;strokeColor=none;fontColor=#FFFFFF;" parent="1" vertex="1">
                    <mxGeometry x="720" y="630" width="140" height="60" as="geometry"/>
                </mxCell>
                <mxCell id="XLPqwXqlDoLw2aWVE9Vi-22" value="" style="edgeStyle=orthogonalEdgeStyle;rounded=0;orthogonalLoop=1;jettySize=auto;html=1;fontColor=#FFFFFF;entryX=1;entryY=0.75;entryDx=0;entryDy=0;strokeColor=#FF6666;strokeWidth=3;" parent="1" source="XLPqwXqlDoLw2aWVE9Vi-16" target="XLPqwXqlDoLw2aWVE9Vi-10" edge="1">
                    <mxGeometry relative="1" as="geometry">
                        <mxPoint x="940" y="540" as="targetPoint"/>
                        <Array as="points">
                            <mxPoint x="920" y="540"/>
                            <mxPoint x="920" y="315"/>
                        </Array>
                    </mxGeometry>
                </mxCell>
                <mxCell id="XLPqwXqlDoLw2aWVE9Vi-24" value="" style="edgeStyle=orthogonalEdgeStyle;rounded=0;orthogonalLoop=1;jettySize=auto;html=1;fontColor=#FFFFFF;exitX=0;exitY=0.25;exitDx=0;exitDy=0;strokeColor=#6666FF;strokeWidth=3;" parent="1" source="XLPqwXqlDoLw2aWVE9Vi-16" target="XLPqwXqlDoLw2aWVE9Vi-2" edge="1">
                    <mxGeometry relative="1" as="geometry">
                        <mxPoint x="640" y="540" as="targetPoint"/>
                        <Array as="points">
                            <mxPoint x="720" y="529"/>
                        </Array>
                    </mxGeometry>
                </mxCell>
                <mxCell id="XLPqwXqlDoLw2aWVE9Vi-16" value="Cartservice" style="rounded=1;whiteSpace=wrap;html=1;fillColor=#FF8000;strokeColor=none;fontColor=#FFFFFF;" parent="1" vertex="1">
                    <mxGeometry x="720" y="510" width="140" height="60" as="geometry"/>
                </mxCell>
                <mxCell id="XLPqwXqlDoLw2aWVE9Vi-15" value="" style="edgeStyle=orthogonalEdgeStyle;rounded=0;orthogonalLoop=1;jettySize=auto;html=1;fontColor=#FFFFFF;strokeColor=#FF6666;strokeWidth=3;" parent="1" source="XLPqwXqlDoLw2aWVE9Vi-13" target="XLPqwXqlDoLw2aWVE9Vi-10" edge="1">
                    <mxGeometry relative="1" as="geometry"/>
                </mxCell>
                <mxCell id="XLPqwXqlDoLw2aWVE9Vi-13" value="Recommenderservice" style="rounded=1;whiteSpace=wrap;html=1;fillColor=#FF8000;strokeColor=none;fontColor=#FFFFFF;" parent="1" vertex="1">
                    <mxGeometry x="720" y="390" width="140" height="60" as="geometry"/>
                </mxCell>
                <mxCell id="XLPqwXqlDoLw2aWVE9Vi-30" value="" style="edgeStyle=orthogonalEdgeStyle;rounded=0;orthogonalLoop=1;jettySize=auto;html=1;strokeColor=#6666FF;strokeWidth=3;fontColor=#FFFFFF;" parent="1" source="XLPqwXqlDoLw2aWVE9Vi-10" target="XLPqwXqlDoLw2aWVE9Vi-26" edge="1">
                    <mxGeometry relative="1" as="geometry">
                        <mxPoint x="940" y="300" as="targetPoint"/>
                    </mxGeometry>
                </mxCell>
                <mxCell id="XLPqwXqlDoLw2aWVE9Vi-10" value="Catalogservice" style="rounded=1;whiteSpace=wrap;html=1;fillColor=#FF8000;strokeColor=none;fontColor=#FFFFFF;" parent="1" vertex="1">
                    <mxGeometry x="720" y="270" width="140" height="60" as="geometry"/>
                </mxCell>
                <mxCell id="XLPqwXqlDoLw2aWVE9Vi-12" value="" style="edgeStyle=orthogonalEdgeStyle;rounded=0;orthogonalLoop=1;jettySize=auto;html=1;fontColor=#FFFFFF;strokeColor=#FF6666;strokeWidth=3;" parent="1" source="XLPqwXqlDoLw2aWVE9Vi-8" target="XLPqwXqlDoLw2aWVE9Vi-10" edge="1">
                    <mxGeometry relative="1" as="geometry"/>
                </mxCell>
                <mxCell id="XLPqwXqlDoLw2aWVE9Vi-8" value="Imageservice" style="rounded=1;whiteSpace=wrap;html=1;fillColor=#FF8000;strokeColor=none;fontColor=#FFFFFF;" parent="1" vertex="1">
                    <mxGeometry x="720" y="150" width="140" height="60" as="geometry"/>
                </mxCell>
                <mxCell id="XLPqwXqlDoLw2aWVE9Vi-4" value="" style="outlineConnect=0;fontColor=#232F3E;gradientColor=none;fillColor=#FF8000;strokeColor=none;dashed=0;verticalLabelPosition=bottom;verticalAlign=top;align=center;html=1;fontSize=12;fontStyle=0;aspect=fixed;pointerEvents=1;shape=mxgraph.aws4.queue;" parent="1" vertex="1">
                    <mxGeometry x="920" y="636.5" width="78" height="47" as="geometry"/>
                </mxCell>
                <mxCell id="XLPqwXqlDoLw2aWVE9Vi-26" value="DynamoDB" style="outlineConnect=0;fontColor=#232F3E;gradientColor=none;fillColor=#FF8000;strokeColor=none;dashed=0;verticalLabelPosition=bottom;verticalAlign=top;align=center;html=1;fontSize=12;fontStyle=0;aspect=fixed;pointerEvents=1;shape=mxgraph.aws4.generic_database;" parent="1" vertex="1">
                    <mxGeometry x="960" y="261" width="59" height="78" as="geometry"/>
                </mxCell>
            </root>
        </mxGraphModel>
    </diagram>
    <diagram id="X_98cOfqsMUb0IozSl5P" name="Infrastructure">
        <mxGraphModel dx="1737" dy="1295" grid="1" gridSize="10" guides="1" tooltips="1" connect="1" arrows="1" fold="1" page="1" pageScale="1" pageWidth="1169" pageHeight="827" math="0" shadow="0">
            <root>
                <mxCell id="Hwu7_2s3XSk1TVKoWRBc-0"/>
                <mxCell id="Hwu7_2s3XSk1TVKoWRBc-1" parent="Hwu7_2s3XSk1TVKoWRBc-0"/>
                <mxCell id="0ulNTqF5I70UQ2XAE1Re-90" value="" style="edgeStyle=orthogonalEdgeStyle;rounded=0;orthogonalLoop=1;jettySize=auto;html=1;strokeColor=#FF6666;strokeWidth=3;" edge="1" parent="Hwu7_2s3XSk1TVKoWRBc-1" source="0ulNTqF5I70UQ2XAE1Re-65" target="0ulNTqF5I70UQ2XAE1Re-69">
                    <mxGeometry relative="1" as="geometry">
                        <mxPoint x="1670" y="870" as="targetPoint"/>
                        <Array as="points">
                            <mxPoint x="1620" y="699"/>
                            <mxPoint x="1620" y="699"/>
                        </Array>
                    </mxGeometry>
                </mxCell>
                <mxCell id="0ulNTqF5I70UQ2XAE1Re-65" value="" style="fillColor=none;strokeColor=#D86613;verticalAlign=top;fontStyle=0;fontColor=#DD3522;" vertex="1" parent="Hwu7_2s3XSk1TVKoWRBc-1">
                    <mxGeometry x="40" y="40" width="1550" height="1660" as="geometry"/>
                </mxCell>
                <mxCell id="zWeM2oxd9pkB98N1_7mg-12" value="" style="fillColor=none;strokeColor=#D86613;verticalAlign=top;fontStyle=0;fontColor=#DD3522;" vertex="1" parent="Hwu7_2s3XSk1TVKoWRBc-1">
                    <mxGeometry x="140" y="674" width="1410" height="980" as="geometry"/>
                </mxCell>
                <mxCell id="tJHySmh1n-q5ahThZfBg-8" value="Auto Scaling group" style="points=[[0,0],[0.25,0],[0.5,0],[0.75,0],[1,0],[1,0.25],[1,0.5],[1,0.75],[1,1],[0.75,1],[0.5,1],[0.25,1],[0,1],[0,0.75],[0,0.5],[0,0.25]];outlineConnect=0;gradientColor=none;html=1;whiteSpace=wrap;fontSize=12;fontStyle=0;shape=mxgraph.aws4.groupCenter;grIcon=mxgraph.aws4.group_auto_scaling_group;grStroke=1;strokeColor=#D86613;fillColor=none;verticalAlign=top;align=center;fontColor=#D86613;dashed=1;spacingTop=25;" vertex="1" parent="Hwu7_2s3XSk1TVKoWRBc-1">
                    <mxGeometry x="720" y="794" width="210" height="330" as="geometry"/>
                </mxCell>
                <mxCell id="0ulNTqF5I70UQ2XAE1Re-1" value="" style="fillColor=none;strokeColor=#D86613;verticalAlign=top;fontStyle=0;fontColor=#DD3522;" vertex="1" parent="Hwu7_2s3XSk1TVKoWRBc-1">
                    <mxGeometry x="140" y="134" width="1410" height="477" as="geometry"/>
                </mxCell>
                <mxCell id="0ulNTqF5I70UQ2XAE1Re-9" value="Auto Scaling group" style="points=[[0,0],[0.25,0],[0.5,0],[0.75,0],[1,0],[1,0.25],[1,0.5],[1,0.75],[1,1],[0.75,1],[0.5,1],[0.25,1],[0,1],[0,0.75],[0,0.5],[0,0.25]];outlineConnect=0;gradientColor=none;html=1;whiteSpace=wrap;fontSize=12;fontStyle=0;shape=mxgraph.aws4.groupCenter;grIcon=mxgraph.aws4.group_auto_scaling_group;grStroke=1;strokeColor=#D86613;fillColor=none;verticalAlign=top;align=center;fontColor=#D86613;dashed=1;spacingTop=25;" vertex="1" parent="Hwu7_2s3XSk1TVKoWRBc-1">
                    <mxGeometry x="375" y="160" width="900" height="424" as="geometry"/>
                </mxCell>
                <mxCell id="0ulNTqF5I70UQ2XAE1Re-94" value="" style="edgeStyle=orthogonalEdgeStyle;rounded=0;orthogonalLoop=1;jettySize=auto;html=1;strokeColor=#FF6666;strokeWidth=3;" edge="1" parent="Hwu7_2s3XSk1TVKoWRBc-1" source="0ulNTqF5I70UQ2XAE1Re-15" target="0ulNTqF5I70UQ2XAE1Re-69">
                    <mxGeometry relative="1" as="geometry">
                        <mxPoint x="1325" y="404.21500000000015" as="targetPoint"/>
                        <Array as="points">
                            <mxPoint x="1040" y="220"/>
                            <mxPoint x="1620" y="220"/>
                            <mxPoint x="1620" y="699"/>
                        </Array>
                    </mxGeometry>
                </mxCell>
                <mxCell id="0ulNTqF5I70UQ2XAE1Re-15" value="EC2 instance" style="points=[[0,0],[0.25,0],[0.5,0],[0.75,0],[1,0],[1,0.25],[1,0.5],[1,0.75],[1,1],[0.75,1],[0.5,1],[0.25,1],[0,1],[0,0.75],[0,0.5],[0,0.25]];outlineConnect=0;gradientColor=none;html=1;whiteSpace=wrap;fontSize=12;fontStyle=0;shape=mxgraph.aws4.group;grIcon=mxgraph.aws4.group_ec2_instance_contents;strokeColor=#D86613;fillColor=none;verticalAlign=top;align=left;spacingLeft=30;fontColor=#D86613;dashed=0;" vertex="1" parent="Hwu7_2s3XSk1TVKoWRBc-1">
                    <mxGeometry x="835" y="244.43" width="410" height="319.57" as="geometry"/>
                </mxCell>
                <mxCell id="0ulNTqF5I70UQ2XAE1Re-92" value="" style="edgeStyle=orthogonalEdgeStyle;rounded=0;orthogonalLoop=1;jettySize=auto;html=1;strokeColor=#FF6666;strokeWidth=3;" edge="1" parent="Hwu7_2s3XSk1TVKoWRBc-1" source="0ulNTqF5I70UQ2XAE1Re-24" target="0ulNTqF5I70UQ2XAE1Re-69">
                    <mxGeometry relative="1" as="geometry">
                        <mxPoint x="325" y="404.21500000000015" as="targetPoint"/>
                        <Array as="points">
                            <mxPoint x="610" y="220"/>
                            <mxPoint x="1620" y="220"/>
                            <mxPoint x="1620" y="699"/>
                        </Array>
                    </mxGeometry>
                </mxCell>
                <mxCell id="0ulNTqF5I70UQ2XAE1Re-24" value="EC2 instance" style="points=[[0,0],[0.25,0],[0.5,0],[0.75,0],[1,0],[1,0.25],[1,0.5],[1,0.75],[1,1],[0.75,1],[0.5,1],[0.25,1],[0,1],[0,0.75],[0,0.5],[0,0.25]];outlineConnect=0;gradientColor=none;html=1;whiteSpace=wrap;fontSize=12;fontStyle=0;shape=mxgraph.aws4.group;grIcon=mxgraph.aws4.group_ec2_instance_contents;strokeColor=#D86613;fillColor=none;verticalAlign=top;align=left;spacingLeft=30;fontColor=#D86613;dashed=0;" vertex="1" parent="Hwu7_2s3XSk1TVKoWRBc-1">
                    <mxGeometry x="405" y="244.43" width="410" height="319.57" as="geometry"/>
                </mxCell>
                <mxCell id="tJHySmh1n-q5ahThZfBg-24" value="Auto Scaling group" style="points=[[0,0],[0.25,0],[0.5,0],[0.75,0],[1,0],[1,0.25],[1,0.5],[1,0.75],[1,1],[0.75,1],[0.5,1],[0.25,1],[0,1],[0,0.75],[0,0.5],[0,0.25]];outlineConnect=0;gradientColor=none;html=1;whiteSpace=wrap;fontSize=12;fontStyle=0;shape=mxgraph.aws4.groupCenter;grIcon=mxgraph.aws4.group_auto_scaling_group;grStroke=1;strokeColor=#D86613;fillColor=none;verticalAlign=top;align=center;fontColor=#D86613;dashed=1;spacingTop=25;" vertex="1" parent="Hwu7_2s3XSk1TVKoWRBc-1">
                    <mxGeometry x="590" y="1294" width="210" height="330" as="geometry"/>
                </mxCell>
                <mxCell id="tJHySmh1n-q5ahThZfBg-13" value="Auto Scaling group" style="points=[[0,0],[0.25,0],[0.5,0],[0.75,0],[1,0],[1,0.25],[1,0.5],[1,0.75],[1,1],[0.75,1],[0.5,1],[0.25,1],[0,1],[0,0.75],[0,0.5],[0,0.25]];outlineConnect=0;gradientColor=none;html=1;whiteSpace=wrap;fontSize=12;fontStyle=0;shape=mxgraph.aws4.groupCenter;grIcon=mxgraph.aws4.group_auto_scaling_group;grStroke=1;strokeColor=#D86613;fillColor=none;verticalAlign=top;align=center;fontColor=#D86613;dashed=1;spacingTop=25;" vertex="1" parent="Hwu7_2s3XSk1TVKoWRBc-1">
                    <mxGeometry x="160" y="1294" width="400" height="330" as="geometry"/>
                </mxCell>
                <mxCell id="0ulNTqF5I70UQ2XAE1Re-34" value="" style="edgeStyle=orthogonalEdgeStyle;rounded=0;orthogonalLoop=1;jettySize=auto;html=1;" edge="1" parent="Hwu7_2s3XSk1TVKoWRBc-1" source="tJHySmh1n-q5ahThZfBg-2" target="tJHySmh1n-q5ahThZfBg-19">
                    <mxGeometry relative="1" as="geometry">
                        <mxPoint x="826" y="1185" as="targetPoint"/>
                        <Array as="points">
                            <mxPoint x="826" y="1154"/>
                            <mxPoint x="361" y="1154"/>
                        </Array>
                    </mxGeometry>
                </mxCell>
                <mxCell id="0ulNTqF5I70UQ2XAE1Re-38" value="" style="edgeStyle=orthogonalEdgeStyle;rounded=0;orthogonalLoop=1;jettySize=auto;html=1;" edge="1" parent="Hwu7_2s3XSk1TVKoWRBc-1" source="tJHySmh1n-q5ahThZfBg-2" target="tJHySmh1n-q5ahThZfBg-25">
                    <mxGeometry relative="1" as="geometry">
                        <mxPoint x="991" y="975" as="targetPoint"/>
                        <Array as="points">
                            <mxPoint x="826" y="1154"/>
                            <mxPoint x="695" y="1154"/>
                        </Array>
                    </mxGeometry>
                </mxCell>
                <mxCell id="0ulNTqF5I70UQ2XAE1Re-49" value="" style="edgeStyle=orthogonalEdgeStyle;rounded=0;orthogonalLoop=1;jettySize=auto;html=1;" edge="1" parent="Hwu7_2s3XSk1TVKoWRBc-1" source="tJHySmh1n-q5ahThZfBg-2" target="tJHySmh1n-q5ahThZfBg-32">
                    <mxGeometry relative="1" as="geometry">
                        <mxPoint x="991" y="975" as="targetPoint"/>
                        <Array as="points">
                            <mxPoint x="826" y="1154"/>
                            <mxPoint x="935" y="1154"/>
                        </Array>
                    </mxGeometry>
                </mxCell>
                <mxCell id="0ulNTqF5I70UQ2XAE1Re-51" value="" style="edgeStyle=orthogonalEdgeStyle;rounded=0;orthogonalLoop=1;jettySize=auto;html=1;" edge="1" parent="Hwu7_2s3XSk1TVKoWRBc-1" source="tJHySmh1n-q5ahThZfBg-2" target="zWeM2oxd9pkB98N1_7mg-5">
                    <mxGeometry relative="1" as="geometry">
                        <mxPoint x="991" y="975" as="targetPoint"/>
                        <Array as="points">
                            <mxPoint x="826" y="1154"/>
                            <mxPoint x="1184" y="1154"/>
                        </Array>
                    </mxGeometry>
                </mxCell>
                <mxCell id="0ulNTqF5I70UQ2XAE1Re-64" value="" style="edgeStyle=orthogonalEdgeStyle;rounded=0;orthogonalLoop=1;jettySize=auto;html=1;" edge="1" parent="Hwu7_2s3XSk1TVKoWRBc-1" source="tJHySmh1n-q5ahThZfBg-2" target="zWeM2oxd9pkB98N1_7mg-11">
                    <mxGeometry relative="1" as="geometry">
                        <mxPoint x="991" y="975" as="targetPoint"/>
                        <Array as="points">
                            <mxPoint x="826" y="1154"/>
                            <mxPoint x="1425" y="1154"/>
                        </Array>
                    </mxGeometry>
                </mxCell>
                <mxCell id="tJHySmh1n-q5ahThZfBg-2" value="" style="fillColor=none;strokeColor=#D86613;verticalAlign=top;fontStyle=0;fontColor=#DD3522;" vertex="1" parent="Hwu7_2s3XSk1TVKoWRBc-1">
                    <mxGeometry x="741" y="845" width="170" height="260" as="geometry"/>
                </mxCell>
                <mxCell id="tJHySmh1n-q5ahThZfBg-0" value="" style="outlineConnect=0;fontColor=#232F3E;gradientColor=none;fillColor=#D05C17;strokeColor=none;dashed=0;verticalLabelPosition=bottom;verticalAlign=top;align=center;html=1;fontSize=12;fontStyle=0;aspect=fixed;pointerEvents=1;shape=mxgraph.aws4.ecs_task;" vertex="1" parent="Hwu7_2s3XSk1TVKoWRBc-1">
                    <mxGeometry x="740" y="844" width="40" height="52.87" as="geometry"/>
                </mxCell>
                <mxCell id="tJHySmh1n-q5ahThZfBg-4" value="Frontend" style="outlineConnect=0;fontColor=#232F3E;gradientColor=none;fillColor=#D05C17;strokeColor=none;dashed=0;verticalLabelPosition=bottom;verticalAlign=top;align=center;html=1;fontSize=12;fontStyle=0;pointerEvents=1;shape=mxgraph.aws4.container_2;" vertex="1" parent="Hwu7_2s3XSk1TVKoWRBc-1">
                    <mxGeometry x="781" y="905" width="91" height="60" as="geometry"/>
                </mxCell>
                <mxCell id="0ulNTqF5I70UQ2XAE1Re-78" value="" style="edgeStyle=orthogonalEdgeStyle;rounded=0;orthogonalLoop=1;jettySize=auto;html=1;strokeColor=#3333FF;strokeWidth=3;" edge="1" parent="Hwu7_2s3XSk1TVKoWRBc-1" source="tJHySmh1n-q5ahThZfBg-7" target="0ulNTqF5I70UQ2XAE1Re-70">
                    <mxGeometry relative="1" as="geometry">
                        <mxPoint x="954.5999999999999" y="1035" as="targetPoint"/>
                        <Array as="points">
                            <mxPoint x="1640" y="1035"/>
                            <mxPoint x="1640" y="599"/>
                        </Array>
                    </mxGeometry>
                </mxCell>
                <mxCell id="tJHySmh1n-q5ahThZfBg-7" value="X-Ray Agent" style="outlineConnect=0;fontColor=#232F3E;gradientColor=none;fillColor=#D05C17;strokeColor=none;dashed=0;verticalLabelPosition=bottom;verticalAlign=top;align=center;html=1;fontSize=12;fontStyle=0;aspect=fixed;pointerEvents=1;shape=mxgraph.aws4.container_1;" vertex="1" parent="Hwu7_2s3XSk1TVKoWRBc-1">
                    <mxGeometry x="781" y="1005" width="93.6" height="60" as="geometry"/>
                </mxCell>
                <mxCell id="tJHySmh1n-q5ahThZfBg-9" value="" style="fillColor=none;strokeColor=#D86613;verticalAlign=top;fontStyle=0;fontColor=#DD3522;" vertex="1" parent="Hwu7_2s3XSk1TVKoWRBc-1">
                    <mxGeometry x="181" y="1345" width="170" height="260" as="geometry"/>
                </mxCell>
                <mxCell id="tJHySmh1n-q5ahThZfBg-10" value="" style="outlineConnect=0;fontColor=#232F3E;gradientColor=none;fillColor=#D05C17;strokeColor=none;dashed=0;verticalLabelPosition=bottom;verticalAlign=top;align=center;html=1;fontSize=12;fontStyle=0;aspect=fixed;pointerEvents=1;shape=mxgraph.aws4.ecs_task;" vertex="1" parent="Hwu7_2s3XSk1TVKoWRBc-1">
                    <mxGeometry x="180" y="1344" width="40" height="52.87" as="geometry"/>
                </mxCell>
                <mxCell id="tJHySmh1n-q5ahThZfBg-11" value="Image Service" style="outlineConnect=0;fontColor=#232F3E;gradientColor=none;fillColor=#D05C17;strokeColor=none;dashed=0;verticalLabelPosition=bottom;verticalAlign=top;align=center;html=1;fontSize=12;fontStyle=0;pointerEvents=1;shape=mxgraph.aws4.container_2;" vertex="1" parent="Hwu7_2s3XSk1TVKoWRBc-1">
                    <mxGeometry x="221" y="1405" width="91" height="60" as="geometry"/>
                </mxCell>
                <mxCell id="tJHySmh1n-q5ahThZfBg-12" value="X-Ray Agent" style="outlineConnect=0;fontColor=#232F3E;gradientColor=none;fillColor=#D05C17;strokeColor=none;dashed=0;verticalLabelPosition=bottom;verticalAlign=top;align=center;html=1;fontSize=12;fontStyle=0;aspect=fixed;pointerEvents=1;shape=mxgraph.aws4.container_1;" vertex="1" parent="Hwu7_2s3XSk1TVKoWRBc-1">
                    <mxGeometry x="221" y="1505" width="93.6" height="60" as="geometry"/>
                </mxCell>
                <mxCell id="tJHySmh1n-q5ahThZfBg-14" value="" style="outlineConnect=0;fontColor=#232F3E;gradientColor=none;fillColor=#5A30B5;strokeColor=none;dashed=0;verticalLabelPosition=bottom;verticalAlign=top;align=center;html=1;fontSize=12;fontStyle=0;aspect=fixed;pointerEvents=1;shape=mxgraph.aws4.application_load_balancer;" vertex="1" parent="Hwu7_2s3XSk1TVKoWRBc-1">
                    <mxGeometry x="786" y="694" width="78" height="78" as="geometry"/>
                </mxCell>
                <mxCell id="tJHySmh1n-q5ahThZfBg-15" value="" style="fillColor=none;strokeColor=#D86613;verticalAlign=top;fontStyle=0;fontColor=#DD3522;" vertex="1" parent="Hwu7_2s3XSk1TVKoWRBc-1">
                    <mxGeometry x="371" y="1346" width="170" height="260" as="geometry"/>
                </mxCell>
                <mxCell id="tJHySmh1n-q5ahThZfBg-16" value="" style="outlineConnect=0;fontColor=#232F3E;gradientColor=none;fillColor=#D05C17;strokeColor=none;dashed=0;verticalLabelPosition=bottom;verticalAlign=top;align=center;html=1;fontSize=12;fontStyle=0;aspect=fixed;pointerEvents=1;shape=mxgraph.aws4.ecs_task;" vertex="1" parent="Hwu7_2s3XSk1TVKoWRBc-1">
                    <mxGeometry x="370" y="1345" width="40" height="52.87" as="geometry"/>
                </mxCell>
                <mxCell id="tJHySmh1n-q5ahThZfBg-17" value="Image Service" style="outlineConnect=0;fontColor=#232F3E;gradientColor=none;fillColor=#D05C17;strokeColor=none;dashed=0;verticalLabelPosition=bottom;verticalAlign=top;align=center;html=1;fontSize=12;fontStyle=0;pointerEvents=1;shape=mxgraph.aws4.container_2;" vertex="1" parent="Hwu7_2s3XSk1TVKoWRBc-1">
                    <mxGeometry x="411" y="1406" width="91" height="60" as="geometry"/>
                </mxCell>
                <mxCell id="0ulNTqF5I70UQ2XAE1Re-80" value="" style="edgeStyle=orthogonalEdgeStyle;rounded=0;orthogonalLoop=1;jettySize=auto;html=1;strokeColor=#3333FF;strokeWidth=3;" edge="1" parent="Hwu7_2s3XSk1TVKoWRBc-1" source="tJHySmh1n-q5ahThZfBg-18" target="0ulNTqF5I70UQ2XAE1Re-70">
                    <mxGeometry relative="1" as="geometry">
                        <mxPoint x="457.7999999999997" y="1646.0542312123926" as="targetPoint"/>
                        <Array as="points">
                            <mxPoint x="580" y="1536"/>
                            <mxPoint x="580" y="1640"/>
                            <mxPoint x="1640" y="1640"/>
                            <mxPoint x="1640" y="599"/>
                        </Array>
                    </mxGeometry>
                </mxCell>
                <mxCell id="tJHySmh1n-q5ahThZfBg-18" value="X-Ray Agent" style="outlineConnect=0;fontColor=#232F3E;gradientColor=none;fillColor=#D05C17;strokeColor=none;dashed=0;verticalLabelPosition=bottom;verticalAlign=top;align=center;html=1;fontSize=12;fontStyle=0;aspect=fixed;pointerEvents=1;shape=mxgraph.aws4.container_1;" vertex="1" parent="Hwu7_2s3XSk1TVKoWRBc-1">
                    <mxGeometry x="411" y="1506" width="93.6" height="60" as="geometry"/>
                </mxCell>
                <mxCell id="tJHySmh1n-q5ahThZfBg-19" value="" style="outlineConnect=0;fontColor=#232F3E;gradientColor=none;fillColor=#5A30B5;strokeColor=none;dashed=0;verticalLabelPosition=bottom;verticalAlign=top;align=center;html=1;fontSize=12;fontStyle=0;aspect=fixed;pointerEvents=1;shape=mxgraph.aws4.application_load_balancer;" vertex="1" parent="Hwu7_2s3XSk1TVKoWRBc-1">
                    <mxGeometry x="322" y="1194" width="78" height="78" as="geometry"/>
                </mxCell>
                <mxCell id="tJHySmh1n-q5ahThZfBg-20" value="" style="fillColor=none;strokeColor=#D86613;verticalAlign=top;fontStyle=0;fontColor=#DD3522;" vertex="1" parent="Hwu7_2s3XSk1TVKoWRBc-1">
                    <mxGeometry x="611" y="1345" width="170" height="260" as="geometry"/>
                </mxCell>
                <mxCell id="tJHySmh1n-q5ahThZfBg-21" value="" style="outlineConnect=0;fontColor=#232F3E;gradientColor=none;fillColor=#D05C17;strokeColor=none;dashed=0;verticalLabelPosition=bottom;verticalAlign=top;align=center;html=1;fontSize=12;fontStyle=0;aspect=fixed;pointerEvents=1;shape=mxgraph.aws4.ecs_task;" vertex="1" parent="Hwu7_2s3XSk1TVKoWRBc-1">
                    <mxGeometry x="610" y="1344" width="40" height="52.87" as="geometry"/>
                </mxCell>
                <mxCell id="tJHySmh1n-q5ahThZfBg-22" value="Recommender" style="outlineConnect=0;fontColor=#232F3E;gradientColor=none;fillColor=#D05C17;strokeColor=none;dashed=0;verticalLabelPosition=bottom;verticalAlign=top;align=center;html=1;fontSize=12;fontStyle=0;pointerEvents=1;shape=mxgraph.aws4.container_2;" vertex="1" parent="Hwu7_2s3XSk1TVKoWRBc-1">
                    <mxGeometry x="651" y="1405" width="91" height="60" as="geometry"/>
                </mxCell>
                <mxCell id="0ulNTqF5I70UQ2XAE1Re-82" value="" style="edgeStyle=orthogonalEdgeStyle;rounded=0;orthogonalLoop=1;jettySize=auto;html=1;strokeColor=#3333FF;strokeWidth=3;" edge="1" parent="Hwu7_2s3XSk1TVKoWRBc-1">
                    <mxGeometry relative="1" as="geometry">
                        <mxPoint x="651" y="1536" as="sourcePoint"/>
                        <mxPoint x="1690" y="600.0000000000002" as="targetPoint"/>
                        <Array as="points">
                            <mxPoint x="580" y="1536"/>
                            <mxPoint x="580" y="1641"/>
                            <mxPoint x="1640" y="1641"/>
                            <mxPoint x="1640" y="600"/>
                        </Array>
                    </mxGeometry>
                </mxCell>
                <mxCell id="tJHySmh1n-q5ahThZfBg-23" value="X-Ray Agent" style="outlineConnect=0;fontColor=#232F3E;gradientColor=none;fillColor=#D05C17;strokeColor=none;dashed=0;verticalLabelPosition=bottom;verticalAlign=top;align=center;html=1;fontSize=12;fontStyle=0;aspect=fixed;pointerEvents=1;shape=mxgraph.aws4.container_1;" vertex="1" parent="Hwu7_2s3XSk1TVKoWRBc-1">
                    <mxGeometry x="651" y="1506" width="93.6" height="60" as="geometry"/>
                </mxCell>
                <mxCell id="tJHySmh1n-q5ahThZfBg-25" value="" style="outlineConnect=0;fontColor=#232F3E;gradientColor=none;fillColor=#5A30B5;strokeColor=none;dashed=0;verticalLabelPosition=bottom;verticalAlign=top;align=center;html=1;fontSize=12;fontStyle=0;aspect=fixed;pointerEvents=1;shape=mxgraph.aws4.application_load_balancer;" vertex="1" parent="Hwu7_2s3XSk1TVKoWRBc-1">
                    <mxGeometry x="656" y="1194" width="78" height="78" as="geometry"/>
                </mxCell>
                <mxCell id="tJHySmh1n-q5ahThZfBg-27" value="Auto Scaling group" style="points=[[0,0],[0.25,0],[0.5,0],[0.75,0],[1,0],[1,0.25],[1,0.5],[1,0.75],[1,1],[0.75,1],[0.5,1],[0.25,1],[0,1],[0,0.75],[0,0.5],[0,0.25]];outlineConnect=0;gradientColor=none;html=1;whiteSpace=wrap;fontSize=12;fontStyle=0;shape=mxgraph.aws4.groupCenter;grIcon=mxgraph.aws4.group_auto_scaling_group;grStroke=1;strokeColor=#D86613;fillColor=none;verticalAlign=top;align=center;fontColor=#D86613;dashed=1;spacingTop=25;" vertex="1" parent="Hwu7_2s3XSk1TVKoWRBc-1">
                    <mxGeometry x="830" y="1294" width="210" height="330" as="geometry"/>
                </mxCell>
                <mxCell id="tJHySmh1n-q5ahThZfBg-28" value="" style="fillColor=none;strokeColor=#D86613;verticalAlign=top;fontStyle=0;fontColor=#DD3522;" vertex="1" parent="Hwu7_2s3XSk1TVKoWRBc-1">
                    <mxGeometry x="851" y="1345" width="170" height="260" as="geometry"/>
                </mxCell>
                <mxCell id="tJHySmh1n-q5ahThZfBg-29" value="" style="outlineConnect=0;fontColor=#232F3E;gradientColor=none;fillColor=#D05C17;strokeColor=none;dashed=0;verticalLabelPosition=bottom;verticalAlign=top;align=center;html=1;fontSize=12;fontStyle=0;aspect=fixed;pointerEvents=1;shape=mxgraph.aws4.ecs_task;" vertex="1" parent="Hwu7_2s3XSk1TVKoWRBc-1">
                    <mxGeometry x="850" y="1344" width="40" height="52.87" as="geometry"/>
                </mxCell>
                <mxCell id="tJHySmh1n-q5ahThZfBg-30" value="Catalog Service" style="outlineConnect=0;fontColor=#232F3E;gradientColor=none;fillColor=#D05C17;strokeColor=none;dashed=0;verticalLabelPosition=bottom;verticalAlign=top;align=center;html=1;fontSize=12;fontStyle=0;pointerEvents=1;shape=mxgraph.aws4.container_2;" vertex="1" parent="Hwu7_2s3XSk1TVKoWRBc-1">
                    <mxGeometry x="891" y="1405" width="91" height="60" as="geometry"/>
                </mxCell>
                <mxCell id="0ulNTqF5I70UQ2XAE1Re-84" value="" style="edgeStyle=orthogonalEdgeStyle;rounded=0;orthogonalLoop=1;jettySize=auto;html=1;strokeColor=#3333FF;strokeWidth=3;" edge="1" parent="Hwu7_2s3XSk1TVKoWRBc-1" source="tJHySmh1n-q5ahThZfBg-31" target="0ulNTqF5I70UQ2XAE1Re-70">
                    <mxGeometry relative="1" as="geometry">
                        <mxPoint x="937.7999999999997" y="1645.054231212393" as="targetPoint"/>
                        <Array as="points">
                            <mxPoint x="1060" y="1535"/>
                            <mxPoint x="1060" y="1640"/>
                            <mxPoint x="1640" y="1640"/>
                            <mxPoint x="1640" y="599"/>
                        </Array>
                    </mxGeometry>
                </mxCell>
                <mxCell id="tJHySmh1n-q5ahThZfBg-31" value="X-Ray Agent" style="outlineConnect=0;fontColor=#232F3E;gradientColor=none;fillColor=#D05C17;strokeColor=none;dashed=0;verticalLabelPosition=bottom;verticalAlign=top;align=center;html=1;fontSize=12;fontStyle=0;aspect=fixed;pointerEvents=1;shape=mxgraph.aws4.container_1;" vertex="1" parent="Hwu7_2s3XSk1TVKoWRBc-1">
                    <mxGeometry x="891" y="1505" width="93.6" height="60" as="geometry"/>
                </mxCell>
                <mxCell id="tJHySmh1n-q5ahThZfBg-32" value="" style="outlineConnect=0;fontColor=#232F3E;gradientColor=none;fillColor=#5A30B5;strokeColor=none;dashed=0;verticalLabelPosition=bottom;verticalAlign=top;align=center;html=1;fontSize=12;fontStyle=0;aspect=fixed;pointerEvents=1;shape=mxgraph.aws4.application_load_balancer;" vertex="1" parent="Hwu7_2s3XSk1TVKoWRBc-1">
                    <mxGeometry x="896" y="1194" width="78" height="78" as="geometry"/>
                </mxCell>
                <mxCell id="zWeM2oxd9pkB98N1_7mg-0" value="Auto Scaling group" style="points=[[0,0],[0.25,0],[0.5,0],[0.75,0],[1,0],[1,0.25],[1,0.5],[1,0.75],[1,1],[0.75,1],[0.5,1],[0.25,1],[0,1],[0,0.75],[0,0.5],[0,0.25]];outlineConnect=0;gradientColor=none;html=1;whiteSpace=wrap;fontSize=12;fontStyle=0;shape=mxgraph.aws4.groupCenter;grIcon=mxgraph.aws4.group_auto_scaling_group;grStroke=1;strokeColor=#D86613;fillColor=none;verticalAlign=top;align=center;fontColor=#D86613;dashed=1;spacingTop=25;" vertex="1" parent="Hwu7_2s3XSk1TVKoWRBc-1">
                    <mxGeometry x="1079" y="1294" width="210" height="330" as="geometry"/>
                </mxCell>
                <mxCell id="zWeM2oxd9pkB98N1_7mg-1" value="" style="fillColor=none;strokeColor=#D86613;verticalAlign=top;fontStyle=0;fontColor=#DD3522;" vertex="1" parent="Hwu7_2s3XSk1TVKoWRBc-1">
                    <mxGeometry x="1100" y="1345" width="170" height="260" as="geometry"/>
                </mxCell>
                <mxCell id="zWeM2oxd9pkB98N1_7mg-2" value="" style="outlineConnect=0;fontColor=#232F3E;gradientColor=none;fillColor=#D05C17;strokeColor=none;dashed=0;verticalLabelPosition=bottom;verticalAlign=top;align=center;html=1;fontSize=12;fontStyle=0;aspect=fixed;pointerEvents=1;shape=mxgraph.aws4.ecs_task;" vertex="1" parent="Hwu7_2s3XSk1TVKoWRBc-1">
                    <mxGeometry x="1099" y="1344" width="40" height="52.87" as="geometry"/>
                </mxCell>
                <mxCell id="zWeM2oxd9pkB98N1_7mg-3" value="Order Service" style="outlineConnect=0;fontColor=#232F3E;gradientColor=none;fillColor=#D05C17;strokeColor=none;dashed=0;verticalLabelPosition=bottom;verticalAlign=top;align=center;html=1;fontSize=12;fontStyle=0;pointerEvents=1;shape=mxgraph.aws4.container_2;" vertex="1" parent="Hwu7_2s3XSk1TVKoWRBc-1">
                    <mxGeometry x="1140" y="1405" width="91" height="60" as="geometry"/>
                </mxCell>
                <mxCell id="0ulNTqF5I70UQ2XAE1Re-86" value="" style="edgeStyle=orthogonalEdgeStyle;rounded=0;orthogonalLoop=1;jettySize=auto;html=1;strokeColor=#3333FF;strokeWidth=3;" edge="1" parent="Hwu7_2s3XSk1TVKoWRBc-1" source="zWeM2oxd9pkB98N1_7mg-4" target="0ulNTqF5I70UQ2XAE1Re-70">
                    <mxGeometry relative="1" as="geometry">
                        <mxPoint x="1186.8000000000002" y="1645.054231212393" as="targetPoint"/>
                        <Array as="points">
                            <mxPoint x="1060" y="1535"/>
                            <mxPoint x="1060" y="1640"/>
                            <mxPoint x="1640" y="1640"/>
                            <mxPoint x="1640" y="599"/>
                        </Array>
                    </mxGeometry>
                </mxCell>
                <mxCell id="zWeM2oxd9pkB98N1_7mg-4" value="X-Ray Agent" style="outlineConnect=0;fontColor=#232F3E;gradientColor=none;fillColor=#D05C17;strokeColor=none;dashed=0;verticalLabelPosition=bottom;verticalAlign=top;align=center;html=1;fontSize=12;fontStyle=0;aspect=fixed;pointerEvents=1;shape=mxgraph.aws4.container_1;" vertex="1" parent="Hwu7_2s3XSk1TVKoWRBc-1">
                    <mxGeometry x="1140" y="1505" width="93.6" height="60" as="geometry"/>
                </mxCell>
                <mxCell id="zWeM2oxd9pkB98N1_7mg-5" value="" style="outlineConnect=0;fontColor=#232F3E;gradientColor=none;fillColor=#5A30B5;strokeColor=none;dashed=0;verticalLabelPosition=bottom;verticalAlign=top;align=center;html=1;fontSize=12;fontStyle=0;aspect=fixed;pointerEvents=1;shape=mxgraph.aws4.application_load_balancer;" vertex="1" parent="Hwu7_2s3XSk1TVKoWRBc-1">
                    <mxGeometry x="1145" y="1194" width="78" height="78" as="geometry"/>
                </mxCell>
                <mxCell id="zWeM2oxd9pkB98N1_7mg-6" value="Auto Scaling group" style="points=[[0,0],[0.25,0],[0.5,0],[0.75,0],[1,0],[1,0.25],[1,0.5],[1,0.75],[1,1],[0.75,1],[0.5,1],[0.25,1],[0,1],[0,0.75],[0,0.5],[0,0.25]];outlineConnect=0;gradientColor=none;html=1;whiteSpace=wrap;fontSize=12;fontStyle=0;shape=mxgraph.aws4.groupCenter;grIcon=mxgraph.aws4.group_auto_scaling_group;grStroke=1;strokeColor=#D86613;fillColor=none;verticalAlign=top;align=center;fontColor=#D86613;dashed=1;spacingTop=25;" vertex="1" parent="Hwu7_2s3XSk1TVKoWRBc-1">
                    <mxGeometry x="1320" y="1294" width="210" height="330" as="geometry"/>
                </mxCell>
                <mxCell id="zWeM2oxd9pkB98N1_7mg-7" value="" style="fillColor=none;strokeColor=#D86613;verticalAlign=top;fontStyle=0;fontColor=#DD3522;" vertex="1" parent="Hwu7_2s3XSk1TVKoWRBc-1">
                    <mxGeometry x="1341" y="1345" width="170" height="260" as="geometry"/>
                </mxCell>
                <mxCell id="zWeM2oxd9pkB98N1_7mg-8" value="" style="outlineConnect=0;fontColor=#232F3E;gradientColor=none;fillColor=#D05C17;strokeColor=none;dashed=0;verticalLabelPosition=bottom;verticalAlign=top;align=center;html=1;fontSize=12;fontStyle=0;aspect=fixed;pointerEvents=1;shape=mxgraph.aws4.ecs_task;" vertex="1" parent="Hwu7_2s3XSk1TVKoWRBc-1">
                    <mxGeometry x="1340" y="1344" width="40" height="52.87" as="geometry"/>
                </mxCell>
                <mxCell id="zWeM2oxd9pkB98N1_7mg-9" value="Cart Service" style="outlineConnect=0;fontColor=#232F3E;gradientColor=none;fillColor=#D05C17;strokeColor=none;dashed=0;verticalLabelPosition=bottom;verticalAlign=top;align=center;html=1;fontSize=12;fontStyle=0;pointerEvents=1;shape=mxgraph.aws4.container_2;" vertex="1" parent="Hwu7_2s3XSk1TVKoWRBc-1">
                    <mxGeometry x="1381" y="1405" width="91" height="60" as="geometry"/>
                </mxCell>
                <mxCell id="0ulNTqF5I70UQ2XAE1Re-88" value="" style="edgeStyle=orthogonalEdgeStyle;rounded=0;orthogonalLoop=1;jettySize=auto;html=1;strokeColor=#3333FF;strokeWidth=3;" edge="1" parent="Hwu7_2s3XSk1TVKoWRBc-1" source="zWeM2oxd9pkB98N1_7mg-10" target="0ulNTqF5I70UQ2XAE1Re-70">
                    <mxGeometry relative="1" as="geometry">
                        <mxPoint x="1554.6" y="1535" as="targetPoint"/>
                        <Array as="points">
                            <mxPoint x="1640" y="1535"/>
                            <mxPoint x="1640" y="599"/>
                        </Array>
                    </mxGeometry>
                </mxCell>
                <mxCell id="zWeM2oxd9pkB98N1_7mg-10" value="X-Ray Agent" style="outlineConnect=0;fontColor=#232F3E;gradientColor=none;fillColor=#D05C17;strokeColor=none;dashed=0;verticalLabelPosition=bottom;verticalAlign=top;align=center;html=1;fontSize=12;fontStyle=0;aspect=fixed;pointerEvents=1;shape=mxgraph.aws4.container_1;" vertex="1" parent="Hwu7_2s3XSk1TVKoWRBc-1">
                    <mxGeometry x="1381" y="1505" width="93.6" height="60" as="geometry"/>
                </mxCell>
                <mxCell id="zWeM2oxd9pkB98N1_7mg-11" value="" style="outlineConnect=0;fontColor=#232F3E;gradientColor=none;fillColor=#5A30B5;strokeColor=none;dashed=0;verticalLabelPosition=bottom;verticalAlign=top;align=center;html=1;fontSize=12;fontStyle=0;aspect=fixed;pointerEvents=1;shape=mxgraph.aws4.application_load_balancer;" vertex="1" parent="Hwu7_2s3XSk1TVKoWRBc-1">
                    <mxGeometry x="1386" y="1194" width="78" height="78" as="geometry"/>
                </mxCell>
                <mxCell id="zWeM2oxd9pkB98N1_7mg-13" value="" style="outlineConnect=0;fontColor=#232F3E;gradientColor=#F78E04;gradientDirection=north;fillColor=#D05C17;strokeColor=#ffffff;dashed=0;verticalLabelPosition=bottom;verticalAlign=top;align=center;html=1;fontSize=12;fontStyle=0;aspect=fixed;shape=mxgraph.aws4.resourceIcon;resIcon=mxgraph.aws4.fargate;" vertex="1" parent="Hwu7_2s3XSk1TVKoWRBc-1">
                    <mxGeometry x="140" y="674" width="78" height="78" as="geometry"/>
                </mxCell>
                <mxCell id="0ulNTqF5I70UQ2XAE1Re-30" value="" style="edgeStyle=orthogonalEdgeStyle;rounded=0;orthogonalLoop=1;jettySize=auto;html=1;" edge="1" parent="Hwu7_2s3XSk1TVKoWRBc-1" source="0ulNTqF5I70UQ2XAE1Re-5" target="tJHySmh1n-q5ahThZfBg-14">
                    <mxGeometry relative="1" as="geometry">
                        <mxPoint x="935.5" y="624" as="targetPoint"/>
                        <Array as="points">
                            <mxPoint x="936" y="644"/>
                            <mxPoint x="825" y="644"/>
                        </Array>
                    </mxGeometry>
                </mxCell>
                <mxCell id="0ulNTqF5I70UQ2XAE1Re-5" value="" style="fillColor=none;strokeColor=#D86613;verticalAlign=top;fontStyle=0;fontColor=#DD3522;" vertex="1" parent="Hwu7_2s3XSk1TVKoWRBc-1">
                    <mxGeometry x="850.5" y="284" width="170" height="260" as="geometry"/>
                </mxCell>
                <mxCell id="0ulNTqF5I70UQ2XAE1Re-6" value="" style="outlineConnect=0;fontColor=#232F3E;gradientColor=none;fillColor=#D05C17;strokeColor=none;dashed=0;verticalLabelPosition=bottom;verticalAlign=top;align=center;html=1;fontSize=12;fontStyle=0;aspect=fixed;pointerEvents=1;shape=mxgraph.aws4.ecs_task;" vertex="1" parent="Hwu7_2s3XSk1TVKoWRBc-1">
                    <mxGeometry x="849.5" y="283" width="40" height="52.87" as="geometry"/>
                </mxCell>
                <mxCell id="0ulNTqF5I70UQ2XAE1Re-7" value="Frontend" style="outlineConnect=0;fontColor=#232F3E;gradientColor=none;fillColor=#D05C17;strokeColor=none;dashed=0;verticalLabelPosition=bottom;verticalAlign=top;align=center;html=1;fontSize=12;fontStyle=0;pointerEvents=1;shape=mxgraph.aws4.container_2;" vertex="1" parent="Hwu7_2s3XSk1TVKoWRBc-1">
                    <mxGeometry x="890.5" y="344" width="91" height="60" as="geometry"/>
                </mxCell>
                <mxCell id="0ulNTqF5I70UQ2XAE1Re-74" value="" style="edgeStyle=orthogonalEdgeStyle;rounded=0;orthogonalLoop=1;jettySize=auto;html=1;strokeColor=#3333FF;strokeWidth=3;" edge="1" parent="Hwu7_2s3XSk1TVKoWRBc-1" source="0ulNTqF5I70UQ2XAE1Re-8" target="0ulNTqF5I70UQ2XAE1Re-70">
                    <mxGeometry relative="1" as="geometry">
                        <Array as="points">
                            <mxPoint x="1040" y="474"/>
                            <mxPoint x="1040" y="599"/>
                        </Array>
                    </mxGeometry>
                </mxCell>
                <mxCell id="0ulNTqF5I70UQ2XAE1Re-8" value="X-Ray Agent" style="outlineConnect=0;fontColor=#232F3E;gradientColor=none;fillColor=#D05C17;strokeColor=none;dashed=0;verticalLabelPosition=bottom;verticalAlign=top;align=center;html=1;fontSize=12;fontStyle=0;aspect=fixed;pointerEvents=1;shape=mxgraph.aws4.container_1;" vertex="1" parent="Hwu7_2s3XSk1TVKoWRBc-1">
                    <mxGeometry x="890.5" y="444" width="93.6" height="60" as="geometry"/>
                </mxCell>
                <mxCell id="0ulNTqF5I70UQ2XAE1Re-32" value="" style="edgeStyle=orthogonalEdgeStyle;rounded=0;orthogonalLoop=1;jettySize=auto;html=1;" edge="1" parent="Hwu7_2s3XSk1TVKoWRBc-1" source="0ulNTqF5I70UQ2XAE1Re-11" target="tJHySmh1n-q5ahThZfBg-14">
                    <mxGeometry relative="1" as="geometry">
                        <mxPoint x="1143" y="624" as="targetPoint"/>
                        <Array as="points">
                            <mxPoint x="1143" y="644"/>
                            <mxPoint x="825" y="644"/>
                        </Array>
                    </mxGeometry>
                </mxCell>
                <mxCell id="0ulNTqF5I70UQ2XAE1Re-11" value="" style="fillColor=none;strokeColor=#D86613;verticalAlign=top;fontStyle=0;fontColor=#DD3522;" vertex="1" parent="Hwu7_2s3XSk1TVKoWRBc-1">
                    <mxGeometry x="1058" y="284" width="170" height="260" as="geometry"/>
                </mxCell>
                <mxCell id="0ulNTqF5I70UQ2XAE1Re-12" value="" style="outlineConnect=0;fontColor=#232F3E;gradientColor=none;fillColor=#D05C17;strokeColor=none;dashed=0;verticalLabelPosition=bottom;verticalAlign=top;align=center;html=1;fontSize=12;fontStyle=0;aspect=fixed;pointerEvents=1;shape=mxgraph.aws4.ecs_task;" vertex="1" parent="Hwu7_2s3XSk1TVKoWRBc-1">
                    <mxGeometry x="1057" y="283" width="40" height="52.87" as="geometry"/>
                </mxCell>
                <mxCell id="0ulNTqF5I70UQ2XAE1Re-13" value="Frontend" style="outlineConnect=0;fontColor=#232F3E;gradientColor=none;fillColor=#D05C17;strokeColor=none;dashed=0;verticalLabelPosition=bottom;verticalAlign=top;align=center;html=1;fontSize=12;fontStyle=0;pointerEvents=1;shape=mxgraph.aws4.container_2;" vertex="1" parent="Hwu7_2s3XSk1TVKoWRBc-1">
                    <mxGeometry x="1098" y="344" width="91" height="60" as="geometry"/>
                </mxCell>
                <mxCell id="0ulNTqF5I70UQ2XAE1Re-76" value="" style="edgeStyle=orthogonalEdgeStyle;rounded=0;orthogonalLoop=1;jettySize=auto;html=1;strokeColor=#3333FF;strokeWidth=3;" edge="1" parent="Hwu7_2s3XSk1TVKoWRBc-1" source="0ulNTqF5I70UQ2XAE1Re-14" target="0ulNTqF5I70UQ2XAE1Re-70">
                    <mxGeometry relative="1" as="geometry">
                        <mxPoint x="1271.6" y="473.9999999999998" as="targetPoint"/>
                        <Array as="points">
                            <mxPoint x="1040" y="474"/>
                            <mxPoint x="1040" y="599"/>
                        </Array>
                    </mxGeometry>
                </mxCell>
                <mxCell id="0ulNTqF5I70UQ2XAE1Re-14" value="X-Ray Agent" style="outlineConnect=0;fontColor=#232F3E;gradientColor=none;fillColor=#D05C17;strokeColor=none;dashed=0;verticalLabelPosition=bottom;verticalAlign=top;align=center;html=1;fontSize=12;fontStyle=0;aspect=fixed;pointerEvents=1;shape=mxgraph.aws4.container_1;" vertex="1" parent="Hwu7_2s3XSk1TVKoWRBc-1">
                    <mxGeometry x="1098" y="444" width="93.6" height="60" as="geometry"/>
                </mxCell>
                <mxCell id="0ulNTqF5I70UQ2XAE1Re-26" value="" style="edgeStyle=orthogonalEdgeStyle;rounded=0;orthogonalLoop=1;jettySize=auto;html=1;" edge="1" parent="Hwu7_2s3XSk1TVKoWRBc-1" source="0ulNTqF5I70UQ2XAE1Re-16" target="tJHySmh1n-q5ahThZfBg-14">
                    <mxGeometry relative="1" as="geometry">
                        <mxPoint x="505.5" y="624" as="targetPoint"/>
                        <Array as="points">
                            <mxPoint x="506" y="644"/>
                            <mxPoint x="825" y="644"/>
                        </Array>
                    </mxGeometry>
                </mxCell>
                <mxCell id="0ulNTqF5I70UQ2XAE1Re-16" value="" style="fillColor=none;strokeColor=#D86613;verticalAlign=top;fontStyle=0;fontColor=#DD3522;" vertex="1" parent="Hwu7_2s3XSk1TVKoWRBc-1">
                    <mxGeometry x="420.5" y="284" width="170" height="260" as="geometry"/>
                </mxCell>
                <mxCell id="0ulNTqF5I70UQ2XAE1Re-17" value="" style="outlineConnect=0;fontColor=#232F3E;gradientColor=none;fillColor=#D05C17;strokeColor=none;dashed=0;verticalLabelPosition=bottom;verticalAlign=top;align=center;html=1;fontSize=12;fontStyle=0;aspect=fixed;pointerEvents=1;shape=mxgraph.aws4.ecs_task;" vertex="1" parent="Hwu7_2s3XSk1TVKoWRBc-1">
                    <mxGeometry x="419.5" y="283" width="40" height="52.87" as="geometry"/>
                </mxCell>
                <mxCell id="0ulNTqF5I70UQ2XAE1Re-18" value="Frontend" style="outlineConnect=0;fontColor=#232F3E;gradientColor=none;fillColor=#D05C17;strokeColor=none;dashed=0;verticalLabelPosition=bottom;verticalAlign=top;align=center;html=1;fontSize=12;fontStyle=0;pointerEvents=1;shape=mxgraph.aws4.container_2;" vertex="1" parent="Hwu7_2s3XSk1TVKoWRBc-1">
                    <mxGeometry x="460.5" y="344" width="91" height="60" as="geometry"/>
                </mxCell>
                <mxCell id="0ulNTqF5I70UQ2XAE1Re-71" value="" style="edgeStyle=orthogonalEdgeStyle;rounded=0;orthogonalLoop=1;jettySize=auto;html=1;strokeColor=#3333FF;strokeWidth=3;" edge="1" parent="Hwu7_2s3XSk1TVKoWRBc-1" source="0ulNTqF5I70UQ2XAE1Re-19" target="0ulNTqF5I70UQ2XAE1Re-70">
                    <mxGeometry relative="1" as="geometry">
                        <mxPoint x="1780" y="340" as="targetPoint"/>
                        <Array as="points">
                            <mxPoint x="610" y="474"/>
                            <mxPoint x="610" y="600"/>
                        </Array>
                    </mxGeometry>
                </mxCell>
                <mxCell id="0ulNTqF5I70UQ2XAE1Re-19" value="X-Ray Agent" style="outlineConnect=0;fontColor=#232F3E;gradientColor=none;fillColor=#D05C17;strokeColor=none;dashed=0;verticalLabelPosition=bottom;verticalAlign=top;align=center;html=1;fontSize=12;fontStyle=0;aspect=fixed;pointerEvents=1;shape=mxgraph.aws4.container_1;" vertex="1" parent="Hwu7_2s3XSk1TVKoWRBc-1">
                    <mxGeometry x="460.5" y="444" width="93.6" height="60" as="geometry"/>
                </mxCell>
                <mxCell id="0ulNTqF5I70UQ2XAE1Re-28" value="" style="edgeStyle=orthogonalEdgeStyle;rounded=0;orthogonalLoop=1;jettySize=auto;html=1;" edge="1" parent="Hwu7_2s3XSk1TVKoWRBc-1" source="0ulNTqF5I70UQ2XAE1Re-20" target="tJHySmh1n-q5ahThZfBg-14">
                    <mxGeometry relative="1" as="geometry">
                        <mxPoint x="713" y="624" as="targetPoint"/>
                        <Array as="points">
                            <mxPoint x="713" y="644"/>
                            <mxPoint x="825" y="644"/>
                        </Array>
                    </mxGeometry>
                </mxCell>
                <mxCell id="0ulNTqF5I70UQ2XAE1Re-20" value="" style="fillColor=none;strokeColor=#D86613;verticalAlign=top;fontStyle=0;fontColor=#DD3522;" vertex="1" parent="Hwu7_2s3XSk1TVKoWRBc-1">
                    <mxGeometry x="628" y="284" width="170" height="260" as="geometry"/>
                </mxCell>
                <mxCell id="0ulNTqF5I70UQ2XAE1Re-21" value="" style="outlineConnect=0;fontColor=#232F3E;gradientColor=none;fillColor=#D05C17;strokeColor=none;dashed=0;verticalLabelPosition=bottom;verticalAlign=top;align=center;html=1;fontSize=12;fontStyle=0;aspect=fixed;pointerEvents=1;shape=mxgraph.aws4.ecs_task;" vertex="1" parent="Hwu7_2s3XSk1TVKoWRBc-1">
                    <mxGeometry x="627" y="283" width="40" height="52.87" as="geometry"/>
                </mxCell>
                <mxCell id="0ulNTqF5I70UQ2XAE1Re-22" value="Frontend" style="outlineConnect=0;fontColor=#232F3E;gradientColor=none;fillColor=#D05C17;strokeColor=none;dashed=0;verticalLabelPosition=bottom;verticalAlign=top;align=center;html=1;fontSize=12;fontStyle=0;pointerEvents=1;shape=mxgraph.aws4.container_2;" vertex="1" parent="Hwu7_2s3XSk1TVKoWRBc-1">
                    <mxGeometry x="668" y="344" width="91" height="60" as="geometry"/>
                </mxCell>
                <mxCell id="0ulNTqF5I70UQ2XAE1Re-72" value="" style="edgeStyle=orthogonalEdgeStyle;rounded=0;orthogonalLoop=1;jettySize=auto;html=1;strokeColor=#3333FF;strokeWidth=3;" edge="1" parent="Hwu7_2s3XSk1TVKoWRBc-1" source="0ulNTqF5I70UQ2XAE1Re-23" target="0ulNTqF5I70UQ2XAE1Re-70">
                    <mxGeometry relative="1" as="geometry">
                        <Array as="points">
                            <mxPoint x="610" y="474"/>
                            <mxPoint x="610" y="599"/>
                        </Array>
                    </mxGeometry>
                </mxCell>
                <mxCell id="0ulNTqF5I70UQ2XAE1Re-23" value="X-Ray Agent" style="outlineConnect=0;fontColor=#232F3E;gradientColor=none;fillColor=#D05C17;strokeColor=none;dashed=0;verticalLabelPosition=bottom;verticalAlign=top;align=center;html=1;fontSize=12;fontStyle=0;aspect=fixed;pointerEvents=1;shape=mxgraph.aws4.container_1;" vertex="1" parent="Hwu7_2s3XSk1TVKoWRBc-1">
                    <mxGeometry x="668" y="444" width="93.6" height="60" as="geometry"/>
                </mxCell>
                <mxCell id="0ulNTqF5I70UQ2XAE1Re-67" value="" style="outlineConnect=0;fontColor=#232F3E;gradientColor=#F78E04;gradientDirection=north;fillColor=#D05C17;strokeColor=#ffffff;dashed=0;verticalLabelPosition=bottom;verticalAlign=top;align=center;html=1;fontSize=12;fontStyle=0;aspect=fixed;shape=mxgraph.aws4.resourceIcon;resIcon=mxgraph.aws4.ecs;" vertex="1" parent="Hwu7_2s3XSk1TVKoWRBc-1">
                    <mxGeometry x="40" y="40" width="78" height="78" as="geometry"/>
                </mxCell>
                <mxCell id="0ulNTqF5I70UQ2XAE1Re-68" value="" style="outlineConnect=0;fontColor=#232F3E;gradientColor=#F78E04;gradientDirection=north;fillColor=#D05C17;strokeColor=#ffffff;dashed=0;verticalLabelPosition=bottom;verticalAlign=top;align=center;html=1;fontSize=12;fontStyle=0;aspect=fixed;shape=mxgraph.aws4.resourceIcon;resIcon=mxgraph.aws4.ec2;" vertex="1" parent="Hwu7_2s3XSk1TVKoWRBc-1">
                    <mxGeometry x="140" y="134" width="78" height="78" as="geometry"/>
                </mxCell>
                <mxCell id="0ulNTqF5I70UQ2XAE1Re-69" value="" style="outlineConnect=0;fontColor=#232F3E;gradientColor=#F34482;gradientDirection=north;fillColor=#BC1356;strokeColor=#ffffff;dashed=0;verticalLabelPosition=bottom;verticalAlign=top;align=center;html=1;fontSize=12;fontStyle=0;aspect=fixed;shape=mxgraph.aws4.resourceIcon;resIcon=mxgraph.aws4.cloudwatch;" vertex="1" parent="Hwu7_2s3XSk1TVKoWRBc-1">
                    <mxGeometry x="1690" y="660" width="78" height="78" as="geometry"/>
                </mxCell>
                <mxCell id="0ulNTqF5I70UQ2XAE1Re-70" value="" style="outlineConnect=0;fontColor=#232F3E;gradientColor=#4D72F3;gradientDirection=north;fillColor=#3334B9;strokeColor=#ffffff;dashed=0;verticalLabelPosition=bottom;verticalAlign=top;align=center;html=1;fontSize=12;fontStyle=0;aspect=fixed;shape=mxgraph.aws4.resourceIcon;resIcon=mxgraph.aws4.xray;" vertex="1" parent="Hwu7_2s3XSk1TVKoWRBc-1">
                    <mxGeometry x="1690" y="560" width="78" height="78" as="geometry"/>
                </mxCell>
                <mxCell id="0ulNTqF5I70UQ2XAE1Re-95" value="" style="outlineConnect=0;fontColor=#232F3E;gradientColor=#945DF2;gradientDirection=north;fillColor=#5A30B5;strokeColor=#ffffff;dashed=0;verticalLabelPosition=bottom;verticalAlign=top;align=center;html=1;fontSize=12;fontStyle=0;aspect=fixed;shape=mxgraph.aws4.resourceIcon;resIcon=mxgraph.aws4.cloud_map;" vertex="1" parent="Hwu7_2s3XSk1TVKoWRBc-1">
                    <mxGeometry x="1690" y="760" width="78" height="78" as="geometry"/>
                </mxCell>
                <mxCell id="0ulNTqF5I70UQ2XAE1Re-96" value="" style="outlineConnect=0;fontColor=#232F3E;gradientColor=#945DF2;gradientDirection=north;fillColor=#5A30B5;strokeColor=#ffffff;dashed=0;verticalLabelPosition=bottom;verticalAlign=top;align=center;html=1;fontSize=12;fontStyle=0;aspect=fixed;shape=mxgraph.aws4.resourceIcon;resIcon=mxgraph.aws4.route_53;" vertex="1" parent="Hwu7_2s3XSk1TVKoWRBc-1">
                    <mxGeometry x="1690" y="860" width="78" height="78" as="geometry"/>
                </mxCell>
            </root>
        </mxGraphModel>
    </diagram>
</mxfile>